<svg width="48" height="48" viewBox="0 0 48 48" fill="none" xmlns="http://www.w3.org/2000/svg">
<g clip-path="url(#clip0_7_27)">
<path d="M23.83 47.66C36.9909 47.66 47.66 36.9909 47.66 23.83C47.66 10.6691 36.9909 0 23.83 0C10.6691 0 0 10.6691 0 23.83C0 36.9909 10.6691 47.66 23.83 47.66Z" fill="black"/>
<path d="M23.92 27.52C23.92 28.16 23.79 28.73 23.53 29.22C23.27 29.71 22.92 30.11 22.47 30.44C22.02 30.77 21.5 31.02 20.9 31.19C20.31 31.36 19.67 31.45 19 31.45H11.64V16.21H19.8C20.33 16.21 20.81 16.32 21.24 16.55C21.67 16.78 22.03 17.08 22.33 17.44C22.63 17.81 22.86 18.22 23.03 18.69C23.19 19.16 23.28 19.62 23.28 20.1C23.28 20.84 23.09 21.54 22.72 22.19C22.35 22.84 21.8 23.32 21.09 23.64C21.96 23.9 22.65 24.36 23.16 25.02C23.67 25.69 23.92 26.52 23.92 27.52ZM14.6 18.74V22.58H18.55C19.05 22.58 19.48 22.41 19.83 22.06C20.18 21.72 20.36 21.24 20.36 20.64C20.36 20.04 20.2 19.59 19.88 19.24C19.56 18.9 19.16 18.72 18.69 18.72H14.61L14.6 18.74ZM20.93 26.97C20.93 26.7 20.88 26.44 20.79 26.19C20.7 25.94 20.57 25.72 20.41 25.54C20.25 25.35 20.07 25.21 19.85 25.1C19.64 24.99 19.4 24.94 19.14 24.94H14.59V28.95H18.99C19.26 28.95 19.52 28.9 19.75 28.8C19.99 28.7 20.19 28.56 20.36 28.38C20.53 28.2 20.67 27.99 20.77 27.75C20.87 27.51 20.92 27.25 20.92 26.98L20.93 26.97Z" fill="white"/>
<path d="M30.33 31.45C29.46 31.45 28.67 31.3 27.96 31C26.56 30.4 25.57 29.4 25 27.99C24.73 27.31 24.59 26.6 24.59 25.85C24.59 25.1 24.72 24.34 24.99 23.66C25.55 22.23 26.54 21.22 27.95 20.61C28.66 20.31 29.47 20.15 30.35 20.15C31.23 20.15 32.03 20.3 32.73 20.61C35.03 21.61 36.12 23.84 36.02 26.27C36.02 26.44 36 26.58 35.97 26.69H27.54C27.58 27.12 27.69 27.5 27.85 27.83C28.02 28.16 28.23 28.45 28.49 28.68C28.75 28.92 29.05 29.1 29.38 29.22C29.71 29.34 30.06 29.41 30.42 29.41C30.97 29.41 31.5 29.27 31.99 29C32.48 28.73 32.82 28.37 33 27.93L35.39 28.6C34.99 29.43 34.35 30.12 33.47 30.65C32.59 31.18 31.54 31.45 30.32 31.45H30.33ZM33.16 24.88C33.09 24.06 32.79 23.41 32.25 22.91C31.72 22.42 31.07 22.17 30.3 22.17C29.93 22.17 29.58 22.24 29.25 22.37C28.92 22.5 28.64 22.69 28.39 22.92C28.14 23.16 27.94 23.44 27.78 23.77C27.62 24.1 27.53 24.47 27.5 24.87H33.16V24.88Z" fill="white"/>
<path d="M26.66 16.93H33.95V18.74H26.66V16.93Z" fill="white"/>
</g>
<defs>
<clipPath id="clip0_7_27">
<rect width="47.66" height="47.66" fill="white"/>
</clipPath>
</defs>
</svg>
