<svg width="48" height="48" viewBox="0 0 48 48" fill="none" xmlns="http://www.w3.org/2000/svg">
<g clip-path="url(#clip0_7_19)">
<path d="M23.83 47.66C36.9909 47.66 47.66 36.9909 47.66 23.83C47.66 10.6691 36.9909 0 23.83 0C10.6691 0 0 10.6691 0 23.83C0 36.9909 10.6691 47.66 23.83 47.66Z" fill="black"/>
<path d="M30.4 15.86C29.6 15.86 28.95 16.51 28.95 17.31C28.95 18.11 29.6 18.76 30.4 18.76C31.2 18.76 31.85 18.11 31.85 17.31C31.85 16.51 31.2 15.86 30.4 15.86Z" fill="white"/>
<path d="M23.93 17.72C20.56 17.72 17.82 20.46 17.82 23.83C17.82 27.2 20.56 29.94 23.93 29.94C27.3 29.94 30.04 27.2 30.04 23.83C30.04 20.46 27.3 17.72 23.93 17.72ZM23.93 27.74C21.77 27.74 20.02 25.98 20.02 23.83C20.02 21.68 21.78 19.92 23.93 19.92C26.08 19.92 27.84 21.68 27.84 23.83C27.84 25.98 26.08 27.74 23.93 27.74Z" fill="white"/>
<path d="M28.78 36.23H18.88C14.77 36.23 11.43 32.89 11.43 28.78V18.88C11.43 14.77 14.77 11.43 18.88 11.43H28.78C32.89 11.43 36.23 14.77 36.23 18.88V28.78C36.23 32.89 32.89 36.23 28.78 36.23ZM18.88 13.76C16.06 13.76 13.76 16.06 13.76 18.88V28.78C13.76 31.6 16.06 33.9 18.88 33.9H28.78C31.6 33.9 33.9 31.6 33.9 28.78V18.88C33.9 16.06 31.6 13.76 28.78 13.76H18.88Z" fill="white"/>
</g>
<defs>
<clipPath id="clip0_7_19">
<rect width="47.66" height="47.66" fill="white"/>
</clipPath>
</defs>
</svg>
